<?xml version="1.0" encoding="utf-8" standalone="no"?>
<!DOCTYPE svg PUBLIC "-//W3C//DTD SVG 1.1//EN"
  "http://www.w3.org/Graphics/SVG/1.1/DTD/svg11.dtd">
<!-- Created with matplotlib (https://matplotlib.org/) -->
<svg height="345.6pt" version="1.1" viewBox="0 0 460.8 345.6" width="460.8pt" xmlns="http://www.w3.org/2000/svg" xmlns:xlink="http://www.w3.org/1999/xlink">
 <metadata>
  <rdf:RDF xmlns:cc="http://creativecommons.org/ns#" xmlns:dc="http://purl.org/dc/elements/1.1/" xmlns:rdf="http://www.w3.org/1999/02/22-rdf-syntax-ns#">
   <cc:Work>
    <dc:type rdf:resource="http://purl.org/dc/dcmitype/StillImage"/>
    <dc:date>2021-08-14T16:57:56.621806</dc:date>
    <dc:format>image/svg+xml</dc:format>
    <dc:creator>
     <cc:Agent>
      <dc:title>Matplotlib v3.3.4, https://matplotlib.org/</dc:title>
     </cc:Agent>
    </dc:creator>
   </cc:Work>
  </rdf:RDF>
 </metadata>
 <defs>
  <style type="text/css">*{stroke-linecap:butt;stroke-linejoin:round;}</style>
 </defs>
 <g id="figure_1">
  <g id="patch_1">
   <path d="M 0 345.6 
L 460.8 345.6 
L 460.8 0 
L 0 0 
z
" style="fill:#ffffff;"/>
  </g>
  <g id="axes_1">
   <g id="patch_2">
    <path d="M 57.6 307.584 
L 414.72 307.584 
L 414.72 41.472 
L 57.6 41.472 
z
" style="fill:#ffffff;"/>
   </g>
   <g id="PathCollection_1">
    <defs>
     <path d="M 0 3.383948 
C 0.897434 3.383948 1.758231 3.027394 2.392813 2.392813 
C 3.027394 1.758231 3.383948 0.897434 3.383948 0 
C 3.383948 -0.897434 3.027394 -1.758231 2.392813 -2.392813 
C 1.758231 -3.027394 0.897434 -3.383948 0 -3.383948 
C -0.897434 -3.383948 -1.758231 -3.027394 -2.392813 -2.392813 
C -3.027394 -1.758231 -3.383948 -0.897434 -3.383948 0 
C -3.383948 0.897434 -3.027394 1.758231 -2.392813 2.392813 
C -1.758231 3.027394 -0.897434 3.383948 0 3.383948 
z
" id="m0422152688" style="stroke:#1f77b4;stroke-width:2.025;"/>
    </defs>
    <g clip-path="url(#p641e9fdd5a)">
     <use style="fill:#1f77b4;stroke:#1f77b4;stroke-width:2.025;" x="156.731698" xlink:href="#m0422152688" y="174.528"/>
    </g>
   </g>
   <g id="patch_3">
    <path clip-path="url(#p641e9fdd5a)" d="M 73.832727 174.528 
L 73.833415 174.528 
L 73.833415 440.64 
L 73.832727 440.64 
z
" style="fill:#ea96a3;"/>
   </g>
   <g id="patch_4">
    <path clip-path="url(#p641e9fdd5a)" d="M 73.833587 174.528 
L 73.834275 174.528 
L 73.834275 440.64 
L 73.833587 440.64 
z
" style="fill:#e79683;"/>
   </g>
   <g id="patch_5">
    <path clip-path="url(#p641e9fdd5a)" d="M 73.834447 174.528 
L 73.835135 174.528 
L 73.835135 440.64 
L 73.834447 440.64 
z
" style="fill:#d7944e;"/>
   </g>
   <g id="patch_6">
    <path clip-path="url(#p641e9fdd5a)" d="M 73.835307 174.528 
L 73.835994 174.528 
L 73.835994 440.64 
L 73.835307 440.64 
z
" style="fill:#bf9a4a;"/>
   </g>
   <g id="patch_7">
    <path clip-path="url(#p641e9fdd5a)" d="M 73.836166 174.528 
L 73.836854 174.528 
L 73.836854 440.64 
L 73.836166 440.64 
z
" style="fill:#ab9e47;"/>
   </g>
   <g id="patch_8">
    <path clip-path="url(#p641e9fdd5a)" d="M 73.837026 174.528 
L 73.837714 174.528 
L 73.837714 440.64 
L 73.837026 440.64 
z
" style="fill:#98a246;"/>
   </g>
   <g id="patch_9">
    <path clip-path="url(#p641e9fdd5a)" d="M 73.837886 174.528 
L 73.838574 174.528 
L 73.838574 440.64 
L 73.837886 440.64 
z
" style="fill:#7fa946;"/>
   </g>
   <g id="patch_10">
    <path clip-path="url(#p641e9fdd5a)" d="M 73.838746 174.528 
L 73.839434 174.528 
L 73.839434 440.64 
L 73.838746 440.64 
z
" style="fill:#48b052;"/>
   </g>
   <g id="patch_11">
    <path clip-path="url(#p641e9fdd5a)" d="M 73.839606 174.528 
L 73.840293 174.528 
L 73.840293 440.64 
L 73.839606 440.64 
z
" style="fill:#49ae83;"/>
   </g>
   <g id="patch_12">
    <path clip-path="url(#p641e9fdd5a)" d="M 73.840465 174.528 
L 73.841153 174.528 
L 73.841153 440.64 
L 73.840465 440.64 
z
" style="fill:#4aad96;"/>
   </g>
   <g id="patch_13">
    <path clip-path="url(#p641e9fdd5a)" d="M 73.841325 174.528 
L 73.842013 174.528 
L 73.842013 440.64 
L 73.841325 440.64 
z
" style="fill:#4baba4;"/>
   </g>
   <g id="patch_14">
    <path clip-path="url(#p641e9fdd5a)" d="M 73.842185 174.528 
L 73.842873 174.528 
L 73.842873 440.64 
L 73.842185 440.64 
z
" style="fill:#4dabb2;"/>
   </g>
   <g id="patch_15">
    <path clip-path="url(#p641e9fdd5a)" d="M 73.843045 174.528 
L 73.843732 174.528 
L 73.843732 440.64 
L 73.843045 440.64 
z
" style="fill:#50acc3;"/>
   </g>
   <g id="patch_16">
    <path clip-path="url(#p641e9fdd5a)" d="M 73.843904 174.528 
L 73.844592 174.528 
L 73.844592 440.64 
L 73.843904 440.64 
z
" style="fill:#56addb;"/>
   </g>
   <g id="patch_17">
    <path clip-path="url(#p641e9fdd5a)" d="M 73.844764 174.528 
L 73.845452 174.528 
L 73.845452 440.64 
L 73.844764 440.64 
z
" style="fill:#94aee8;"/>
   </g>
   <g id="patch_18">
    <path clip-path="url(#p641e9fdd5a)" d="M 73.845624 174.528 
L 73.846312 174.528 
L 73.846312 440.64 
L 73.845624 440.64 
z
" style="fill:#b6a8eb;"/>
   </g>
   <g id="patch_19">
    <path clip-path="url(#p641e9fdd5a)" d="M 73.846484 174.528 
L 73.847172 174.528 
L 73.847172 440.64 
L 73.846484 440.64 
z
" style="fill:#ce9be9;"/>
   </g>
   <g id="patch_20">
    <path clip-path="url(#p641e9fdd5a)" d="M 73.847344 174.528 
L 73.848031 174.528 
L 73.848031 440.64 
L 73.847344 440.64 
z
" style="fill:#e689e4;"/>
   </g>
   <g id="patch_21">
    <path clip-path="url(#p641e9fdd5a)" d="M 73.848203 174.528 
L 73.848891 174.528 
L 73.848891 440.64 
L 73.848203 440.64 
z
" style="fill:#e88fcc;"/>
   </g>
   <g id="patch_22">
    <path clip-path="url(#p641e9fdd5a)" d="M 73.849063 174.528 
L 73.849751 174.528 
L 73.849751 440.64 
L 73.849063 440.64 
z
" style="fill:#e993b9;"/>
   </g>
   <g id="matplotlib.axis_1">
    <g id="xtick_1">
     <g id="line2d_1">
      <defs>
       <path d="M 0 0 
L 0 3.5 
" id="mc811ac173c" style="stroke:#000000;stroke-width:0.8;"/>
      </defs>
      <g>
       <use style="stroke:#000000;stroke-width:0.8;" x="73.833071" xlink:href="#mc811ac173c" y="307.584"/>
      </g>
     </g>
     <g id="text_1">
      <!-- 9E -->
      <g transform="translate(67.492446 322.182437)scale(0.1 -0.1)">
       <defs>
        <path d="M 10.984375 1.515625 
L 10.984375 10.5 
Q 14.703125 8.734375 18.5 7.8125 
Q 22.3125 6.890625 25.984375 6.890625 
Q 35.75 6.890625 40.890625 13.453125 
Q 46.046875 20.015625 46.78125 33.40625 
Q 43.953125 29.203125 39.59375 26.953125 
Q 35.25 24.703125 29.984375 24.703125 
Q 19.046875 24.703125 12.671875 31.3125 
Q 6.296875 37.9375 6.296875 49.421875 
Q 6.296875 60.640625 12.9375 67.421875 
Q 19.578125 74.21875 30.609375 74.21875 
Q 43.265625 74.21875 49.921875 64.515625 
Q 56.59375 54.828125 56.59375 36.375 
Q 56.59375 19.140625 48.40625 8.859375 
Q 40.234375 -1.421875 26.421875 -1.421875 
Q 22.703125 -1.421875 18.890625 -0.6875 
Q 15.09375 0.046875 10.984375 1.515625 
z
M 30.609375 32.421875 
Q 37.25 32.421875 41.125 36.953125 
Q 45.015625 41.5 45.015625 49.421875 
Q 45.015625 57.28125 41.125 61.84375 
Q 37.25 66.40625 30.609375 66.40625 
Q 23.96875 66.40625 20.09375 61.84375 
Q 16.21875 57.28125 16.21875 49.421875 
Q 16.21875 41.5 20.09375 36.953125 
Q 23.96875 32.421875 30.609375 32.421875 
z
" id="DejaVuSans-57"/>
        <path d="M 9.8125 72.90625 
L 55.90625 72.90625 
L 55.90625 64.59375 
L 19.671875 64.59375 
L 19.671875 43.015625 
L 54.390625 43.015625 
L 54.390625 34.71875 
L 19.671875 34.71875 
L 19.671875 8.296875 
L 56.78125 8.296875 
L 56.78125 0 
L 9.8125 0 
z
" id="DejaVuSans-69"/>
       </defs>
       <use xlink:href="#DejaVuSans-57"/>
       <use x="63.623047" xlink:href="#DejaVuSans-69"/>
      </g>
     </g>
    </g>
    <g id="xtick_2">
     <g id="line2d_2">
      <g>
       <use style="stroke:#000000;stroke-width:0.8;" x="73.833931" xlink:href="#mc811ac173c" y="307.584"/>
      </g>
     </g>
     <g id="text_2">
      <!-- AA -->
      <g transform="translate(66.855806 322.182437)scale(0.1 -0.1)">
       <defs>
        <path d="M 34.1875 63.1875 
L 20.796875 26.90625 
L 47.609375 26.90625 
z
M 28.609375 72.90625 
L 39.796875 72.90625 
L 67.578125 0 
L 57.328125 0 
L 50.6875 18.703125 
L 17.828125 18.703125 
L 11.1875 0 
L 0.78125 0 
z
" id="DejaVuSans-65"/>
       </defs>
       <use xlink:href="#DejaVuSans-65"/>
       <use x="71.158203" xlink:href="#DejaVuSans-65"/>
      </g>
     </g>
    </g>
    <g id="xtick_3">
     <g id="line2d_3">
      <g>
       <use style="stroke:#000000;stroke-width:0.8;" x="73.834791" xlink:href="#mc811ac173c" y="307.584"/>
      </g>
     </g>
     <g id="text_3">
      <!-- AQ -->
      <g transform="translate(66.566041 322.182437)scale(0.1 -0.1)">
       <defs>
        <path d="M 39.40625 66.21875 
Q 28.65625 66.21875 22.328125 58.203125 
Q 16.015625 50.203125 16.015625 36.375 
Q 16.015625 22.609375 22.328125 14.59375 
Q 28.65625 6.59375 39.40625 6.59375 
Q 50.140625 6.59375 56.421875 14.59375 
Q 62.703125 22.609375 62.703125 36.375 
Q 62.703125 50.203125 56.421875 58.203125 
Q 50.140625 66.21875 39.40625 66.21875 
z
M 53.21875 1.3125 
L 66.21875 -12.890625 
L 54.296875 -12.890625 
L 43.5 -1.21875 
Q 41.890625 -1.3125 41.03125 -1.359375 
Q 40.1875 -1.421875 39.40625 -1.421875 
Q 24.03125 -1.421875 14.8125 8.859375 
Q 5.609375 19.140625 5.609375 36.375 
Q 5.609375 53.65625 14.8125 63.9375 
Q 24.03125 74.21875 39.40625 74.21875 
Q 54.734375 74.21875 63.90625 63.9375 
Q 73.09375 53.65625 73.09375 36.375 
Q 73.09375 23.6875 67.984375 14.640625 
Q 62.890625 5.609375 53.21875 1.3125 
z
" id="DejaVuSans-81"/>
       </defs>
       <use xlink:href="#DejaVuSans-65"/>
       <use x="66.658203" xlink:href="#DejaVuSans-81"/>
      </g>
     </g>
    </g>
    <g id="xtick_4">
     <g id="line2d_4">
      <g>
       <use style="stroke:#000000;stroke-width:0.8;" x="73.835651" xlink:href="#mc811ac173c" y="307.584"/>
      </g>
     </g>
     <g id="text_4">
      <!-- AS -->
      <g transform="translate(67.241119 322.182437)scale(0.1 -0.1)">
       <defs>
        <path d="M 53.515625 70.515625 
L 53.515625 60.890625 
Q 47.90625 63.578125 42.921875 64.890625 
Q 37.9375 66.21875 33.296875 66.21875 
Q 25.25 66.21875 20.875 63.09375 
Q 16.5 59.96875 16.5 54.203125 
Q 16.5 49.359375 19.40625 46.890625 
Q 22.3125 44.4375 30.421875 42.921875 
L 36.375 41.703125 
Q 47.40625 39.59375 52.65625 34.296875 
Q 57.90625 29 57.90625 20.125 
Q 57.90625 9.515625 50.796875 4.046875 
Q 43.703125 -1.421875 29.984375 -1.421875 
Q 24.8125 -1.421875 18.96875 -0.25 
Q 13.140625 0.921875 6.890625 3.21875 
L 6.890625 13.375 
Q 12.890625 10.015625 18.65625 8.296875 
Q 24.421875 6.59375 29.984375 6.59375 
Q 38.421875 6.59375 43.015625 9.90625 
Q 47.609375 13.234375 47.609375 19.390625 
Q 47.609375 24.75 44.3125 27.78125 
Q 41.015625 30.8125 33.5 32.328125 
L 27.484375 33.5 
Q 16.453125 35.6875 11.515625 40.375 
Q 6.59375 45.0625 6.59375 53.421875 
Q 6.59375 63.09375 13.40625 68.65625 
Q 20.21875 74.21875 32.171875 74.21875 
Q 37.3125 74.21875 42.625 73.28125 
Q 47.953125 72.359375 53.515625 70.515625 
z
" id="DejaVuSans-83"/>
       </defs>
       <use xlink:href="#DejaVuSans-65"/>
       <use x="68.408203" xlink:href="#DejaVuSans-83"/>
      </g>
     </g>
    </g>
    <g id="xtick_5">
     <g id="line2d_5">
      <g>
       <use style="stroke:#000000;stroke-width:0.8;" x="73.83651" xlink:href="#mc811ac173c" y="307.584"/>
      </g>
     </g>
     <g id="text_5">
      <!-- B6 -->
      <g transform="translate(67.224792 322.182437)scale(0.1 -0.1)">
       <defs>
        <path d="M 19.671875 34.8125 
L 19.671875 8.109375 
L 35.5 8.109375 
Q 43.453125 8.109375 47.28125 11.40625 
Q 51.125 14.703125 51.125 21.484375 
Q 51.125 28.328125 47.28125 31.5625 
Q 43.453125 34.8125 35.5 34.8125 
z
M 19.671875 64.796875 
L 19.671875 42.828125 
L 34.28125 42.828125 
Q 41.5 42.828125 45.03125 45.53125 
Q 48.578125 48.25 48.578125 53.8125 
Q 48.578125 59.328125 45.03125 62.0625 
Q 41.5 64.796875 34.28125 64.796875 
z
M 9.8125 72.90625 
L 35.015625 72.90625 
Q 46.296875 72.90625 52.390625 68.21875 
Q 58.5 63.53125 58.5 54.890625 
Q 58.5 48.1875 55.375 44.234375 
Q 52.25 40.28125 46.1875 39.3125 
Q 53.46875 37.75 57.5 32.78125 
Q 61.53125 27.828125 61.53125 20.40625 
Q 61.53125 10.640625 54.890625 5.3125 
Q 48.25 0 35.984375 0 
L 9.8125 0 
z
" id="DejaVuSans-66"/>
        <path d="M 33.015625 40.375 
Q 26.375 40.375 22.484375 35.828125 
Q 18.609375 31.296875 18.609375 23.390625 
Q 18.609375 15.53125 22.484375 10.953125 
Q 26.375 6.390625 33.015625 6.390625 
Q 39.65625 6.390625 43.53125 10.953125 
Q 47.40625 15.53125 47.40625 23.390625 
Q 47.40625 31.296875 43.53125 35.828125 
Q 39.65625 40.375 33.015625 40.375 
z
M 52.59375 71.296875 
L 52.59375 62.3125 
Q 48.875 64.0625 45.09375 64.984375 
Q 41.3125 65.921875 37.59375 65.921875 
Q 27.828125 65.921875 22.671875 59.328125 
Q 17.53125 52.734375 16.796875 39.40625 
Q 19.671875 43.65625 24.015625 45.921875 
Q 28.375 48.1875 33.59375 48.1875 
Q 44.578125 48.1875 50.953125 41.515625 
Q 57.328125 34.859375 57.328125 23.390625 
Q 57.328125 12.15625 50.6875 5.359375 
Q 44.046875 -1.421875 33.015625 -1.421875 
Q 20.359375 -1.421875 13.671875 8.265625 
Q 6.984375 17.96875 6.984375 36.375 
Q 6.984375 53.65625 15.1875 63.9375 
Q 23.390625 74.21875 37.203125 74.21875 
Q 40.921875 74.21875 44.703125 73.484375 
Q 48.484375 72.75 52.59375 71.296875 
z
" id="DejaVuSans-54"/>
       </defs>
       <use xlink:href="#DejaVuSans-66"/>
       <use x="68.603516" xlink:href="#DejaVuSans-54"/>
      </g>
     </g>
    </g>
    <g id="xtick_6">
     <g id="line2d_6">
      <g>
       <use style="stroke:#000000;stroke-width:0.8;" x="73.83737" xlink:href="#mc811ac173c" y="307.584"/>
      </g>
     </g>
     <g id="text_6">
      <!-- CO -->
      <g transform="translate(66.410026 322.182437)scale(0.1 -0.1)">
       <defs>
        <path d="M 64.40625 67.28125 
L 64.40625 56.890625 
Q 59.421875 61.53125 53.78125 63.8125 
Q 48.140625 66.109375 41.796875 66.109375 
Q 29.296875 66.109375 22.65625 58.46875 
Q 16.015625 50.828125 16.015625 36.375 
Q 16.015625 21.96875 22.65625 14.328125 
Q 29.296875 6.6875 41.796875 6.6875 
Q 48.140625 6.6875 53.78125 8.984375 
Q 59.421875 11.28125 64.40625 15.921875 
L 64.40625 5.609375 
Q 59.234375 2.09375 53.4375 0.328125 
Q 47.65625 -1.421875 41.21875 -1.421875 
Q 24.65625 -1.421875 15.125 8.703125 
Q 5.609375 18.84375 5.609375 36.375 
Q 5.609375 53.953125 15.125 64.078125 
Q 24.65625 74.21875 41.21875 74.21875 
Q 47.75 74.21875 53.53125 72.484375 
Q 59.328125 70.75 64.40625 67.28125 
z
" id="DejaVuSans-67"/>
        <path d="M 39.40625 66.21875 
Q 28.65625 66.21875 22.328125 58.203125 
Q 16.015625 50.203125 16.015625 36.375 
Q 16.015625 22.609375 22.328125 14.59375 
Q 28.65625 6.59375 39.40625 6.59375 
Q 50.140625 6.59375 56.421875 14.59375 
Q 62.703125 22.609375 62.703125 36.375 
Q 62.703125 50.203125 56.421875 58.203125 
Q 50.140625 66.21875 39.40625 66.21875 
z
M 39.40625 74.21875 
Q 54.734375 74.21875 63.90625 63.9375 
Q 73.09375 53.65625 73.09375 36.375 
Q 73.09375 19.140625 63.90625 8.859375 
Q 54.734375 -1.421875 39.40625 -1.421875 
Q 24.03125 -1.421875 14.8125 8.828125 
Q 5.609375 19.09375 5.609375 36.375 
Q 5.609375 53.65625 14.8125 63.9375 
Q 24.03125 74.21875 39.40625 74.21875 
z
" id="DejaVuSans-79"/>
       </defs>
       <use xlink:href="#DejaVuSans-67"/>
       <use x="69.824219" xlink:href="#DejaVuSans-79"/>
      </g>
     </g>
    </g>
    <g id="xtick_7">
     <g id="line2d_7">
      <g>
       <use style="stroke:#000000;stroke-width:0.8;" x="73.83823" xlink:href="#mc811ac173c" y="307.584"/>
      </g>
     </g>
     <g id="text_7">
      <!-- DL -->
      <g transform="translate(67.202292 322.182437)scale(0.1 -0.1)">
       <defs>
        <path d="M 19.671875 64.796875 
L 19.671875 8.109375 
L 31.59375 8.109375 
Q 46.6875 8.109375 53.6875 14.9375 
Q 60.6875 21.78125 60.6875 36.53125 
Q 60.6875 51.171875 53.6875 57.984375 
Q 46.6875 64.796875 31.59375 64.796875 
z
M 9.8125 72.90625 
L 30.078125 72.90625 
Q 51.265625 72.90625 61.171875 64.09375 
Q 71.09375 55.28125 71.09375 36.53125 
Q 71.09375 17.671875 61.125 8.828125 
Q 51.171875 0 30.078125 0 
L 9.8125 0 
z
" id="DejaVuSans-68"/>
        <path d="M 9.8125 72.90625 
L 19.671875 72.90625 
L 19.671875 8.296875 
L 55.171875 8.296875 
L 55.171875 0 
L 9.8125 0 
z
" id="DejaVuSans-76"/>
       </defs>
       <use xlink:href="#DejaVuSans-68"/>
       <use x="77.001953" xlink:href="#DejaVuSans-76"/>
      </g>
     </g>
    </g>
    <g id="xtick_8">
     <g id="line2d_8">
      <g>
       <use style="stroke:#000000;stroke-width:0.8;" x="73.83909" xlink:href="#mc811ac173c" y="307.584"/>
      </g>
     </g>
     <g id="text_8">
      <!-- EV -->
      <g transform="translate(67.259402 322.182437)scale(0.1 -0.1)">
       <defs>
        <path d="M 28.609375 0 
L 0.78125 72.90625 
L 11.078125 72.90625 
L 34.1875 11.53125 
L 57.328125 72.90625 
L 67.578125 72.90625 
L 39.796875 0 
z
" id="DejaVuSans-86"/>
       </defs>
       <use xlink:href="#DejaVuSans-69"/>
       <use x="63.183594" xlink:href="#DejaVuSans-86"/>
      </g>
     </g>
    </g>
    <g id="xtick_9">
     <g id="line2d_9">
      <g>
       <use style="stroke:#000000;stroke-width:0.8;" x="73.839949" xlink:href="#mc811ac173c" y="307.584"/>
      </g>
     </g>
     <g id="text_9">
      <!-- F9 -->
      <g transform="translate(67.782918 322.182437)scale(0.1 -0.1)">
       <defs>
        <path d="M 9.8125 72.90625 
L 51.703125 72.90625 
L 51.703125 64.59375 
L 19.671875 64.59375 
L 19.671875 43.109375 
L 48.578125 43.109375 
L 48.578125 34.8125 
L 19.671875 34.8125 
L 19.671875 0 
L 9.8125 0 
z
" id="DejaVuSans-70"/>
       </defs>
       <use xlink:href="#DejaVuSans-70"/>
       <use x="57.519531" xlink:href="#DejaVuSans-57"/>
      </g>
     </g>
    </g>
    <g id="xtick_10">
     <g id="line2d_10">
      <g>
       <use style="stroke:#000000;stroke-width:0.8;" x="73.840809" xlink:href="#mc811ac173c" y="307.584"/>
      </g>
     </g>
     <g id="text_10">
      <!-- FL -->
      <g transform="translate(68.17909 322.182437)scale(0.1 -0.1)">
       <use xlink:href="#DejaVuSans-70"/>
       <use x="57.519531" xlink:href="#DejaVuSans-76"/>
      </g>
     </g>
    </g>
    <g id="xtick_11">
     <g id="line2d_11">
      <g>
       <use style="stroke:#000000;stroke-width:0.8;" x="73.841669" xlink:href="#mc811ac173c" y="307.584"/>
      </g>
     </g>
     <g id="text_11">
      <!-- HA -->
      <g transform="translate(66.6612 322.182437)scale(0.1 -0.1)">
       <defs>
        <path d="M 9.8125 72.90625 
L 19.671875 72.90625 
L 19.671875 43.015625 
L 55.515625 43.015625 
L 55.515625 72.90625 
L 65.375 72.90625 
L 65.375 0 
L 55.515625 0 
L 55.515625 34.71875 
L 19.671875 34.71875 
L 19.671875 0 
L 9.8125 0 
z
" id="DejaVuSans-72"/>
       </defs>
       <use xlink:href="#DejaVuSans-72"/>
       <use x="75.195312" xlink:href="#DejaVuSans-65"/>
      </g>
     </g>
    </g>
    <g id="xtick_12">
     <g id="line2d_12">
      <g>
       <use style="stroke:#000000;stroke-width:0.8;" x="73.842529" xlink:href="#mc811ac173c" y="307.584"/>
      </g>
     </g>
     <g id="text_12">
      <!-- MQ -->
      <g transform="translate(65.592529 322.182437)scale(0.1 -0.1)">
       <defs>
        <path d="M 9.8125 72.90625 
L 24.515625 72.90625 
L 43.109375 23.296875 
L 61.8125 72.90625 
L 76.515625 72.90625 
L 76.515625 0 
L 66.890625 0 
L 66.890625 64.015625 
L 48.09375 14.015625 
L 38.1875 14.015625 
L 19.390625 64.015625 
L 19.390625 0 
L 9.8125 0 
z
" id="DejaVuSans-77"/>
       </defs>
       <use xlink:href="#DejaVuSans-77"/>
       <use x="86.279297" xlink:href="#DejaVuSans-81"/>
      </g>
     </g>
    </g>
    <g id="xtick_13">
     <g id="line2d_13">
      <g>
       <use style="stroke:#000000;stroke-width:0.8;" x="73.843389" xlink:href="#mc811ac173c" y="307.584"/>
      </g>
     </g>
     <g id="text_13">
      <!-- NW -->
      <g transform="translate(65.159014 322.182437)scale(0.1 -0.1)">
       <defs>
        <path d="M 9.8125 72.90625 
L 23.09375 72.90625 
L 55.421875 11.921875 
L 55.421875 72.90625 
L 64.984375 72.90625 
L 64.984375 0 
L 51.703125 0 
L 19.390625 60.984375 
L 19.390625 0 
L 9.8125 0 
z
" id="DejaVuSans-78"/>
        <path d="M 3.328125 72.90625 
L 13.28125 72.90625 
L 28.609375 11.28125 
L 43.890625 72.90625 
L 54.984375 72.90625 
L 70.3125 11.28125 
L 85.59375 72.90625 
L 95.609375 72.90625 
L 77.296875 0 
L 64.890625 0 
L 49.515625 63.28125 
L 33.984375 0 
L 21.578125 0 
z
" id="DejaVuSans-87"/>
       </defs>
       <use xlink:href="#DejaVuSans-78"/>
       <use x="74.804688" xlink:href="#DejaVuSans-87"/>
      </g>
     </g>
    </g>
    <g id="xtick_14">
     <g id="line2d_14">
      <g>
       <use style="stroke:#000000;stroke-width:0.8;" x="73.844248" xlink:href="#mc811ac173c" y="307.584"/>
      </g>
     </g>
     <g id="text_14">
      <!-- OH -->
      <g transform="translate(66.148155 322.182437)scale(0.1 -0.1)">
       <use xlink:href="#DejaVuSans-79"/>
       <use x="78.710938" xlink:href="#DejaVuSans-72"/>
      </g>
     </g>
    </g>
    <g id="xtick_15">
     <g id="line2d_15">
      <g>
       <use style="stroke:#000000;stroke-width:0.8;" x="73.845108" xlink:href="#mc811ac173c" y="307.584"/>
      </g>
     </g>
     <g id="text_15">
      <!-- OO -->
      <g transform="translate(65.973233 322.182437)scale(0.1 -0.1)">
       <use xlink:href="#DejaVuSans-79"/>
       <use x="78.710938" xlink:href="#DejaVuSans-79"/>
      </g>
     </g>
    </g>
    <g id="xtick_16">
     <g id="line2d_16">
      <g>
       <use style="stroke:#000000;stroke-width:0.8;" x="73.845968" xlink:href="#mc811ac173c" y="307.584"/>
      </g>
     </g>
     <g id="text_16">
      <!-- UA -->
      <g transform="translate(66.76628 322.182437)scale(0.1 -0.1)">
       <defs>
        <path d="M 8.6875 72.90625 
L 18.609375 72.90625 
L 18.609375 28.609375 
Q 18.609375 16.890625 22.84375 11.734375 
Q 27.09375 6.59375 36.625 6.59375 
Q 46.09375 6.59375 50.34375 11.734375 
Q 54.59375 16.890625 54.59375 28.609375 
L 54.59375 72.90625 
L 64.5 72.90625 
L 64.5 27.390625 
Q 64.5 13.140625 57.4375 5.859375 
Q 50.390625 -1.421875 36.625 -1.421875 
Q 22.796875 -1.421875 15.734375 5.859375 
Q 8.6875 13.140625 8.6875 27.390625 
z
" id="DejaVuSans-85"/>
       </defs>
       <use xlink:href="#DejaVuSans-85"/>
       <use x="73.193359" xlink:href="#DejaVuSans-65"/>
      </g>
     </g>
    </g>
    <g id="xtick_17">
     <g id="line2d_17">
      <g>
       <use style="stroke:#000000;stroke-width:0.8;" x="73.846828" xlink:href="#mc811ac173c" y="307.584"/>
      </g>
     </g>
     <g id="text_17">
      <!-- US -->
      <g transform="translate(67.013234 322.182437)scale(0.1 -0.1)">
       <use xlink:href="#DejaVuSans-85"/>
       <use x="73.193359" xlink:href="#DejaVuSans-83"/>
      </g>
     </g>
    </g>
    <g id="xtick_18">
     <g id="line2d_18">
      <g>
       <use style="stroke:#000000;stroke-width:0.8;" x="73.847687" xlink:href="#mc811ac173c" y="307.584"/>
      </g>
     </g>
     <g id="text_18">
      <!-- WN -->
      <g transform="translate(65.163312 322.182437)scale(0.1 -0.1)">
       <use xlink:href="#DejaVuSans-87"/>
       <use x="98.876953" xlink:href="#DejaVuSans-78"/>
      </g>
     </g>
    </g>
    <g id="xtick_19">
     <g id="line2d_19">
      <g>
       <use style="stroke:#000000;stroke-width:0.8;" x="73.848547" xlink:href="#mc811ac173c" y="307.584"/>
      </g>
     </g>
     <g id="text_19">
      <!-- XE -->
      <g transform="translate(67.264172 322.182437)scale(0.1 -0.1)">
       <defs>
        <path d="M 6.296875 72.90625 
L 16.890625 72.90625 
L 35.015625 45.796875 
L 53.21875 72.90625 
L 63.8125 72.90625 
L 40.375 37.890625 
L 65.375 0 
L 54.78125 0 
L 34.28125 31 
L 13.625 0 
L 2.984375 0 
L 29 38.921875 
z
" id="DejaVuSans-88"/>
       </defs>
       <use xlink:href="#DejaVuSans-88"/>
       <use x="68.505859" xlink:href="#DejaVuSans-69"/>
      </g>
     </g>
    </g>
    <g id="xtick_20">
     <g id="line2d_20">
      <g>
       <use style="stroke:#000000;stroke-width:0.8;" x="73.849407" xlink:href="#mc811ac173c" y="307.584"/>
      </g>
     </g>
     <g id="text_20">
      <!-- YV -->
      <g transform="translate(67.375188 322.182437)scale(0.1 -0.1)">
       <defs>
        <path d="M -0.203125 72.90625 
L 10.40625 72.90625 
L 30.609375 42.921875 
L 50.6875 72.90625 
L 61.28125 72.90625 
L 35.5 34.71875 
L 35.5 0 
L 25.59375 0 
L 25.59375 34.71875 
z
" id="DejaVuSans-89"/>
       </defs>
       <use xlink:href="#DejaVuSans-89"/>
       <use x="61.083984" xlink:href="#DejaVuSans-86"/>
      </g>
     </g>
    </g>
    <g id="text_21">
     <!-- AirTime -->
     <g transform="translate(217.061563 335.860562)scale(0.1 -0.1)">
      <defs>
       <path d="M 9.421875 54.6875 
L 18.40625 54.6875 
L 18.40625 0 
L 9.421875 0 
z
M 9.421875 75.984375 
L 18.40625 75.984375 
L 18.40625 64.59375 
L 9.421875 64.59375 
z
" id="DejaVuSans-105"/>
       <path d="M 41.109375 46.296875 
Q 39.59375 47.171875 37.8125 47.578125 
Q 36.03125 48 33.890625 48 
Q 26.265625 48 22.1875 43.046875 
Q 18.109375 38.09375 18.109375 28.8125 
L 18.109375 0 
L 9.078125 0 
L 9.078125 54.6875 
L 18.109375 54.6875 
L 18.109375 46.1875 
Q 20.953125 51.171875 25.484375 53.578125 
Q 30.03125 56 36.53125 56 
Q 37.453125 56 38.578125 55.875 
Q 39.703125 55.765625 41.0625 55.515625 
z
" id="DejaVuSans-114"/>
       <path d="M -0.296875 72.90625 
L 61.375 72.90625 
L 61.375 64.59375 
L 35.5 64.59375 
L 35.5 0 
L 25.59375 0 
L 25.59375 64.59375 
L -0.296875 64.59375 
z
" id="DejaVuSans-84"/>
       <path d="M 52 44.1875 
Q 55.375 50.25 60.0625 53.125 
Q 64.75 56 71.09375 56 
Q 79.640625 56 84.28125 50.015625 
Q 88.921875 44.046875 88.921875 33.015625 
L 88.921875 0 
L 79.890625 0 
L 79.890625 32.71875 
Q 79.890625 40.578125 77.09375 44.375 
Q 74.3125 48.1875 68.609375 48.1875 
Q 61.625 48.1875 57.5625 43.546875 
Q 53.515625 38.921875 53.515625 30.90625 
L 53.515625 0 
L 44.484375 0 
L 44.484375 32.71875 
Q 44.484375 40.625 41.703125 44.40625 
Q 38.921875 48.1875 33.109375 48.1875 
Q 26.21875 48.1875 22.15625 43.53125 
Q 18.109375 38.875 18.109375 30.90625 
L 18.109375 0 
L 9.078125 0 
L 9.078125 54.6875 
L 18.109375 54.6875 
L 18.109375 46.1875 
Q 21.1875 51.21875 25.484375 53.609375 
Q 29.78125 56 35.6875 56 
Q 41.65625 56 45.828125 52.96875 
Q 50 49.953125 52 44.1875 
z
" id="DejaVuSans-109"/>
       <path d="M 56.203125 29.59375 
L 56.203125 25.203125 
L 14.890625 25.203125 
Q 15.484375 15.921875 20.484375 11.0625 
Q 25.484375 6.203125 34.421875 6.203125 
Q 39.59375 6.203125 44.453125 7.46875 
Q 49.3125 8.734375 54.109375 11.28125 
L 54.109375 2.78125 
Q 49.265625 0.734375 44.1875 -0.34375 
Q 39.109375 -1.421875 33.890625 -1.421875 
Q 20.796875 -1.421875 13.15625 6.1875 
Q 5.515625 13.8125 5.515625 26.8125 
Q 5.515625 40.234375 12.765625 48.109375 
Q 20.015625 56 32.328125 56 
Q 43.359375 56 49.78125 48.890625 
Q 56.203125 41.796875 56.203125 29.59375 
z
M 47.21875 32.234375 
Q 47.125 39.59375 43.09375 43.984375 
Q 39.0625 48.390625 32.421875 48.390625 
Q 24.90625 48.390625 20.390625 44.140625 
Q 15.875 39.890625 15.1875 32.171875 
z
" id="DejaVuSans-101"/>
      </defs>
      <use xlink:href="#DejaVuSans-65"/>
      <use x="68.408203" xlink:href="#DejaVuSans-105"/>
      <use x="96.191406" xlink:href="#DejaVuSans-114"/>
      <use x="137.304688" xlink:href="#DejaVuSans-84"/>
      <use x="195.263672" xlink:href="#DejaVuSans-105"/>
      <use x="223.046875" xlink:href="#DejaVuSans-109"/>
      <use x="320.458984" xlink:href="#DejaVuSans-101"/>
     </g>
    </g>
   </g>
   <g id="matplotlib.axis_2">
    <g id="ytick_1">
     <g id="line2d_21">
      <defs>
       <path d="M 0 0 
L -3.5 0 
" id="m5d63969656" style="stroke:#000000;stroke-width:0.8;"/>
      </defs>
      <g>
       <use style="stroke:#000000;stroke-width:0.8;" x="57.6" xlink:href="#m5d63969656" y="174.528"/>
      </g>
     </g>
    </g>
    <g id="text_22">
     <!-- count -->
     <g transform="translate(44.520313 188.63425)rotate(-90)scale(0.1 -0.1)">
      <defs>
       <path d="M 48.78125 52.59375 
L 48.78125 44.1875 
Q 44.96875 46.296875 41.140625 47.34375 
Q 37.3125 48.390625 33.40625 48.390625 
Q 24.65625 48.390625 19.8125 42.84375 
Q 14.984375 37.3125 14.984375 27.296875 
Q 14.984375 17.28125 19.8125 11.734375 
Q 24.65625 6.203125 33.40625 6.203125 
Q 37.3125 6.203125 41.140625 7.25 
Q 44.96875 8.296875 48.78125 10.40625 
L 48.78125 2.09375 
Q 45.015625 0.34375 40.984375 -0.53125 
Q 36.96875 -1.421875 32.421875 -1.421875 
Q 20.0625 -1.421875 12.78125 6.34375 
Q 5.515625 14.109375 5.515625 27.296875 
Q 5.515625 40.671875 12.859375 48.328125 
Q 20.21875 56 33.015625 56 
Q 37.15625 56 41.109375 55.140625 
Q 45.0625 54.296875 48.78125 52.59375 
z
" id="DejaVuSans-99"/>
       <path d="M 30.609375 48.390625 
Q 23.390625 48.390625 19.1875 42.75 
Q 14.984375 37.109375 14.984375 27.296875 
Q 14.984375 17.484375 19.15625 11.84375 
Q 23.34375 6.203125 30.609375 6.203125 
Q 37.796875 6.203125 41.984375 11.859375 
Q 46.1875 17.53125 46.1875 27.296875 
Q 46.1875 37.015625 41.984375 42.703125 
Q 37.796875 48.390625 30.609375 48.390625 
z
M 30.609375 56 
Q 42.328125 56 49.015625 48.375 
Q 55.71875 40.765625 55.71875 27.296875 
Q 55.71875 13.875 49.015625 6.21875 
Q 42.328125 -1.421875 30.609375 -1.421875 
Q 18.84375 -1.421875 12.171875 6.21875 
Q 5.515625 13.875 5.515625 27.296875 
Q 5.515625 40.765625 12.171875 48.375 
Q 18.84375 56 30.609375 56 
z
" id="DejaVuSans-111"/>
       <path d="M 8.5 21.578125 
L 8.5 54.6875 
L 17.484375 54.6875 
L 17.484375 21.921875 
Q 17.484375 14.15625 20.5 10.265625 
Q 23.53125 6.390625 29.59375 6.390625 
Q 36.859375 6.390625 41.078125 11.03125 
Q 45.3125 15.671875 45.3125 23.6875 
L 45.3125 54.6875 
L 54.296875 54.6875 
L 54.296875 0 
L 45.3125 0 
L 45.3125 8.40625 
Q 42.046875 3.421875 37.71875 1 
Q 33.40625 -1.421875 27.6875 -1.421875 
Q 18.265625 -1.421875 13.375 4.4375 
Q 8.5 10.296875 8.5 21.578125 
z
M 31.109375 56 
z
" id="DejaVuSans-117"/>
       <path d="M 54.890625 33.015625 
L 54.890625 0 
L 45.90625 0 
L 45.90625 32.71875 
Q 45.90625 40.484375 42.875 44.328125 
Q 39.84375 48.1875 33.796875 48.1875 
Q 26.515625 48.1875 22.3125 43.546875 
Q 18.109375 38.921875 18.109375 30.90625 
L 18.109375 0 
L 9.078125 0 
L 9.078125 54.6875 
L 18.109375 54.6875 
L 18.109375 46.1875 
Q 21.34375 51.125 25.703125 53.5625 
Q 30.078125 56 35.796875 56 
Q 45.21875 56 50.046875 50.171875 
Q 54.890625 44.34375 54.890625 33.015625 
z
" id="DejaVuSans-110"/>
       <path d="M 18.3125 70.21875 
L 18.3125 54.6875 
L 36.8125 54.6875 
L 36.8125 47.703125 
L 18.3125 47.703125 
L 18.3125 18.015625 
Q 18.3125 11.328125 20.140625 9.421875 
Q 21.96875 7.515625 27.59375 7.515625 
L 36.8125 7.515625 
L 36.8125 0 
L 27.59375 0 
Q 17.1875 0 13.234375 3.875 
Q 9.28125 7.765625 9.28125 18.015625 
L 9.28125 47.703125 
L 2.6875 47.703125 
L 2.6875 54.6875 
L 9.28125 54.6875 
L 9.28125 70.21875 
z
" id="DejaVuSans-116"/>
      </defs>
      <use xlink:href="#DejaVuSans-99"/>
      <use x="54.980469" xlink:href="#DejaVuSans-111"/>
      <use x="116.162109" xlink:href="#DejaVuSans-117"/>
      <use x="179.541016" xlink:href="#DejaVuSans-110"/>
      <use x="242.919922" xlink:href="#DejaVuSans-116"/>
     </g>
    </g>
   </g>
   <g id="line2d_22">
    <path clip-path="url(#p641e9fdd5a)" d="M 156.731698 174.528 
" style="fill:none;stroke:#1f77b4;stroke-linecap:square;stroke-width:2.7;"/>
   </g>
   <g id="line2d_23">
    <path clip-path="url(#p641e9fdd5a)" d="M 130.373256 174.528 
L 190.090595 174.528 
" style="fill:none;stroke:#1f77b4;stroke-linecap:square;stroke-width:2.7;"/>
   </g>
   <g id="patch_23">
    <path d="M 57.6 307.584 
L 57.6 41.472 
" style="fill:none;stroke:#000000;stroke-linecap:square;stroke-linejoin:miter;stroke-width:0.8;"/>
   </g>
   <g id="patch_24">
    <path d="M 414.72 307.584 
L 414.72 41.472 
" style="fill:none;stroke:#000000;stroke-linecap:square;stroke-linejoin:miter;stroke-width:0.8;"/>
   </g>
   <g id="patch_25">
    <path d="M 57.6 307.584 
L 414.72 307.584 
" style="fill:none;stroke:#000000;stroke-linecap:square;stroke-linejoin:miter;stroke-width:0.8;"/>
   </g>
   <g id="patch_26">
    <path d="M 57.6 41.472 
L 414.72 41.472 
" style="fill:none;stroke:#000000;stroke-linecap:square;stroke-linejoin:miter;stroke-width:0.8;"/>
   </g>
   <g id="PathCollection_2">
    <defs>
     <path d="M 0 2.5 
C 0.663008 2.5 1.29895 2.236584 1.767767 1.767767 
C 2.236584 1.29895 2.5 0.663008 2.5 -0 
C 2.5 -0.663008 2.236584 -1.29895 1.767767 -1.767767 
C 1.29895 -2.236584 0.663008 -2.5 0 -2.5 
C -0.663008 -2.5 -1.29895 -2.236584 -1.767767 -1.767767 
C -2.236584 -1.29895 -2.5 -0.663008 -2.5 0 
C -2.5 0.663008 -2.236584 1.29895 -1.767767 1.767767 
C -1.29895 2.236584 -0.663008 2.5 0 2.5 
z
" id="C0_0_35a93fa1a3"/>
    </defs>
    <g clip-path="url(#p641e9fdd5a)">
     <use style="fill:#1f77b4;" x="74.472747" xlink:href="#C0_0_35a93fa1a3" y="174.528"/>
    </g>
    <g clip-path="url(#p641e9fdd5a)">
     <use style="fill:#1f77b4;" x="80.257339" xlink:href="#C0_0_35a93fa1a3" y="174.528"/>
    </g>
    <g clip-path="url(#p641e9fdd5a)">
     <use style="fill:#1f77b4;" x="98.099469" xlink:href="#C0_0_35a93fa1a3" y="174.528"/>
    </g>
    <g clip-path="url(#p641e9fdd5a)">
     <use style="fill:#1f77b4;" x="107.373043" xlink:href="#C0_0_35a93fa1a3" y="174.528"/>
    </g>
    <g clip-path="url(#p641e9fdd5a)">
     <use style="fill:#1f77b4;" x="118.171005" xlink:href="#C0_0_35a93fa1a3" y="174.528"/>
    </g>
    <g clip-path="url(#p641e9fdd5a)">
     <use style="fill:#1f77b4;" x="118.93105" xlink:href="#C0_0_35a93fa1a3" y="169.339468"/>
    </g>
    <g clip-path="url(#p641e9fdd5a)">
     <use style="fill:#1f77b4;" x="121.056423" xlink:href="#C0_0_35a93fa1a3" y="178.807602"/>
    </g>
    <g clip-path="url(#p641e9fdd5a)">
     <use style="fill:#1f77b4;" x="131.239643" xlink:href="#C0_0_35a93fa1a3" y="174.528"/>
    </g>
    <g clip-path="url(#p641e9fdd5a)">
     <use style="fill:#1f77b4;" x="134.850714" xlink:href="#C0_0_35a93fa1a3" y="170.911537"/>
    </g>
    <g clip-path="url(#p641e9fdd5a)">
     <use style="fill:#1f77b4;" x="141.620613" xlink:href="#C0_0_35a93fa1a3" y="174.528"/>
    </g>
    <g clip-path="url(#p641e9fdd5a)">
     <use style="fill:#1f77b4;" x="144.130307" xlink:href="#C0_0_35a93fa1a3" y="169.992968"/>
    </g>
    <g clip-path="url(#p641e9fdd5a)">
     <use style="fill:#1f77b4;" x="158.097414" xlink:href="#C0_0_35a93fa1a3" y="174.528"/>
    </g>
    <g clip-path="url(#p641e9fdd5a)">
     <use style="fill:#1f77b4;" x="159.579673" xlink:href="#C0_0_35a93fa1a3" y="169.515802"/>
    </g>
    <g clip-path="url(#p641e9fdd5a)">
     <use style="fill:#1f77b4;" x="162.516677" xlink:href="#C0_0_35a93fa1a3" y="176.950835"/>
    </g>
    <g clip-path="url(#p641e9fdd5a)">
     <use style="fill:#1f77b4;" x="171.613997" xlink:href="#C0_0_35a93fa1a3" y="174.528"/>
    </g>
    <g clip-path="url(#p641e9fdd5a)">
     <use style="fill:#1f77b4;" x="187.134724" xlink:href="#C0_0_35a93fa1a3" y="174.528"/>
    </g>
    <g clip-path="url(#p641e9fdd5a)">
     <use style="fill:#1f77b4;" x="194.979346" xlink:href="#C0_0_35a93fa1a3" y="174.528"/>
    </g>
    <g clip-path="url(#p641e9fdd5a)">
     <use style="fill:#1f77b4;" x="195.253615" xlink:href="#C0_0_35a93fa1a3" y="169.285963"/>
    </g>
    <g clip-path="url(#p641e9fdd5a)">
     <use style="fill:#1f77b4;" x="237.973445" xlink:href="#C0_0_35a93fa1a3" y="174.528"/>
    </g>
    <g clip-path="url(#p641e9fdd5a)">
     <use style="fill:#1f77b4;" x="397.282723" xlink:href="#C0_0_35a93fa1a3" y="174.528"/>
    </g>
   </g>
   <g id="PathCollection_3">
    <defs>
     <path d="M 0 2.5 
C 0.663008 2.5 1.29895 2.236584 1.767767 1.767767 
C 2.236584 1.29895 2.5 0.663008 2.5 -0 
C 2.5 -0.663008 2.236584 -1.29895 1.767767 -1.767767 
C 1.29895 -2.236584 0.663008 -2.5 0 -2.5 
C -0.663008 -2.5 -1.29895 -2.236584 -1.767767 -1.767767 
C -2.236584 -1.29895 -2.5 -0.663008 -2.5 0 
C -2.5 0.663008 -2.236584 1.29895 -1.767767 1.767767 
C -1.29895 2.236584 -0.663008 2.5 0 2.5 
z
" id="C1_0_8346f30d1c"/>
    </defs>
    <g clip-path="url(#p641e9fdd5a)">
     <use style="fill:#1f77b4;" x="118.442695" xlink:href="#C1_0_8346f30d1c" y="185.862483"/>
    </g>
    <g clip-path="url(#p641e9fdd5a)">
     <use style="fill:#1f77b4;" x="238.794534" xlink:href="#C1_0_8346f30d1c" y="187.986147"/>
    </g>
    <g clip-path="url(#p641e9fdd5a)">
     <use style="fill:#1f77b4;" x="74.477905" xlink:href="#C1_0_8346f30d1c" y="169.195564"/>
    </g>
    <g clip-path="url(#p641e9fdd5a)">
     <use style="fill:#1f77b4;" x="107.61636" xlink:href="#C1_0_8346f30d1c" y="172.595892"/>
    </g>
    <g clip-path="url(#p641e9fdd5a)">
     <use style="fill:#1f77b4;" x="121.391737" xlink:href="#C1_0_8346f30d1c" y="174.045218"/>
    </g>
    <g clip-path="url(#p641e9fdd5a)">
     <use style="fill:#1f77b4;" x="159.97861" xlink:href="#C1_0_8346f30d1c" y="158.687367"/>
    </g>
    <g clip-path="url(#p641e9fdd5a)">
     <use style="fill:#1f77b4;" x="172.052484" xlink:href="#C1_0_8346f30d1c" y="160.873266"/>
    </g>
    <g clip-path="url(#p641e9fdd5a)">
     <use style="fill:#1f77b4;" x="144.229182" xlink:href="#C1_0_8346f30d1c" y="171.696073"/>
    </g>
    <g clip-path="url(#p641e9fdd5a)">
     <use style="fill:#1f77b4;" x="98.138159" xlink:href="#C1_0_8346f30d1c" y="188.664433"/>
    </g>
    <g clip-path="url(#p641e9fdd5a)">
     <use style="fill:#1f77b4;" x="135.121545" xlink:href="#C1_0_8346f30d1c" y="188.777254"/>
    </g>
    <g clip-path="url(#p641e9fdd5a)">
     <use style="fill:#1f77b4;" x="80.272815" xlink:href="#C1_0_8346f30d1c" y="147.935795"/>
    </g>
    <g clip-path="url(#p641e9fdd5a)">
     <use style="fill:#1f77b4;" x="195.852881" xlink:href="#C1_0_8346f30d1c" y="196.640022"/>
    </g>
    <g clip-path="url(#p641e9fdd5a)">
     <use style="fill:#1f77b4;" x="141.848454" xlink:href="#C1_0_8346f30d1c" y="185.148641"/>
    </g>
    <g clip-path="url(#p641e9fdd5a)">
     <use style="fill:#1f77b4;" x="119.106444" xlink:href="#C1_0_8346f30d1c" y="185.354863"/>
    </g>
    <g clip-path="url(#p641e9fdd5a)">
     <use style="fill:#1f77b4;" x="187.696159" xlink:href="#C1_0_8346f30d1c" y="176.456904"/>
    </g>
    <g clip-path="url(#p641e9fdd5a)">
     <use style="fill:#1f77b4;" x="195.42815" xlink:href="#C1_0_8346f30d1c" y="196.997403"/>
    </g>
    <g clip-path="url(#p641e9fdd5a)">
     <use style="fill:#1f77b4;" x="158.456801" xlink:href="#C1_0_8346f30d1c" y="199.559938"/>
    </g>
    <g clip-path="url(#p641e9fdd5a)">
     <use style="fill:#1f77b4;" x="398.487273" xlink:href="#C1_0_8346f30d1c" y="197.56516"/>
    </g>
    <g clip-path="url(#p641e9fdd5a)">
     <use style="fill:#1f77b4;" x="162.960323" xlink:href="#C1_0_8346f30d1c" y="148.941542"/>
    </g>
    <g clip-path="url(#p641e9fdd5a)">
     <use style="fill:#1f77b4;" x="131.492418" xlink:href="#C1_0_8346f30d1c" y="178.047855"/>
    </g>
   </g>
  </g>
 </g>
 <defs>
  <clipPath id="p641e9fdd5a">
   <rect height="266.112" width="357.12" x="57.6" y="41.472"/>
  </clipPath>
 </defs>
</svg>
